<svg width="20" height="20" viewBox="0 0 20 20" fill="none" xmlns="http://www.w3.org/2000/svg">
<path fill-rule="evenodd" clip-rule="evenodd" d="M15.8841 6.68681L13.1283 6.13571C12.7222 6.05449 12.327 6.31791 12.2458 6.72408C12.1646 7.13025 12.428 7.52536 12.8342 7.60659L17.1972 8.47911C17.4029 8.52024 17.6164 8.47336 17.786 8.34983C17.9555 8.2263 18.0655 8.03742 18.0894 7.82902L18.6169 3.22407C18.664 2.81255 18.3686 2.44073 17.9571 2.39359C17.5456 2.34646 17.1738 2.64185 17.1266 3.05337L16.8571 5.40662C14.7389 2.24092 10.6293 0.87134 6.94807 2.33789C2.71525 4.02417 0.651156 8.82173 2.33824 13.0536C4.02527 17.2854 8.82423 19.3486 13.0569 17.6624C15.145 16.8305 16.7061 15.2402 17.5482 13.3362C17.7157 12.9574 17.5444 12.5145 17.1656 12.3469C16.7868 12.1794 16.3439 12.3507 16.1763 12.7295C15.4866 14.2889 14.2107 15.5881 12.5018 16.2689C9.03829 17.6487 5.11179 15.9603 3.7316 12.4981C2.35145 9.03618 4.03986 5.11112 7.50321 3.73138C10.6826 2.46475 14.2523 3.7837 15.8841 6.68681Z" fill="#8D9299"/>
</svg>
