<svg width="20" height="20" viewBox="0 0 20 20" fill="none" xmlns="http://www.w3.org/2000/svg">
<path fill-rule="evenodd" clip-rule="evenodd" d="M3.41667 2C2.53927 2 2 2.78089 2 3.51667V12.4833C2 13.2191 2.53927 14 3.41667 14H5.75V12.5H3.50097C3.50037 12.495 3.5 12.4895 3.5 12.4833V3.51667C3.5 3.51052 3.50037 3.50497 3.50097 3.5H11.999C11.9994 3.50284 11.9996 3.50587 11.9998 3.50909L12 3.51667V5.25H13.5V3.51667C13.5 2.78089 12.9607 2 12.0833 2H3.41667ZM8.41667 6.5C7.6002 6.5 7 7.18409 7 7.95V17.05C7 17.8159 7.6002 18.5 8.41667 18.5H17.0833C17.8998 18.5 18.5 17.8159 18.5 17.05V7.95C18.5 7.18409 17.8998 6.5 17.0833 6.5H8.41667ZM17 17H8.5V8H17V17ZM15.5 10.75C15.5 11.1642 15.1642 11.5 14.75 11.5H10.75C10.3358 11.5 10 11.1642 10 10.75C10 10.3358 10.3358 10 10.75 10H14.75C15.1642 10 15.5 10.3358 15.5 10.75ZM14.75 15C15.1642 15 15.5 14.6642 15.5 14.25C15.5 13.8358 15.1642 13.5 14.75 13.5H10.75C10.3358 13.5 10 13.8358 10 14.25C10 14.6642 10.3358 15 10.75 15H14.75Z" fill="#8D9299"/>
</svg>
