<svg width="28" height="28" viewBox="0 0 28 28" fill="none" xmlns="http://www.w3.org/2000/svg">
<path fill-rule="evenodd" clip-rule="evenodd" d="M14 26.25C20.7655 26.25 26.25 20.7655 26.25 14C26.25 7.23451 20.7655 1.75 14 1.75C7.23451 1.75 1.75 7.23451 1.75 14C1.75 20.7655 7.23451 26.25 14 26.25ZM14 3.85C13.6709 3.85 13.2745 3.99805 12.8225 4.43505C12.3654 4.87693 11.9059 5.56703 11.4971 6.50126C11.1305 7.33937 10.8213 8.33597 10.5921 9.45L17.4079 9.45C17.1787 8.33597 16.8695 7.33937 16.5029 6.50126C16.0941 5.56703 15.6346 4.87693 15.1775 4.43505C14.7255 3.99805 14.3291 3.85 14 3.85ZM17.7272 11.55L10.2728 11.55C10.1928 12.333 10.15 13.1531 10.15 14C10.15 14.8469 10.1928 15.667 10.2728 16.45L17.7272 16.45C17.8072 15.667 17.85 14.8469 17.85 14C17.85 13.1531 17.8072 12.333 17.7272 11.55ZM19.8372 16.45C19.9114 15.6567 19.95 14.837 19.95 14C19.95 13.163 19.9114 12.3433 19.8372 11.55L23.8523 11.55C24.0468 12.3346 24.15 13.1553 24.15 14C24.15 14.8447 24.0468 15.6654 23.8523 16.45H19.8372ZM17.4079 18.55L10.5921 18.55C10.8213 19.664 11.1305 20.6606 11.4971 21.4987C11.9059 22.433 12.3654 23.1231 12.8225 23.565C13.2745 24.0019 13.6709 24.15 14 24.15C14.3291 24.15 14.7255 24.0019 15.1775 23.565C15.6346 23.1231 16.0941 22.433 16.5029 21.4987C16.8695 20.6606 17.1787 19.664 17.4079 18.55ZM17.9178 23.3663C18.1002 23.0424 18.2699 22.6991 18.4268 22.3405C18.9055 21.2462 19.2864 19.9615 19.5475 18.55H23.0755C21.9909 20.7093 20.1583 22.428 17.9178 23.3663ZM17.9178 4.63372C20.1583 5.572 21.9909 7.29075 23.0755 9.45L19.5475 9.45C19.2864 8.03851 18.9055 6.75383 18.4268 5.65954C18.2699 5.30088 18.1002 4.95757 17.9178 4.63372ZM10.0822 23.3663C9.89979 23.0424 9.73013 22.6991 9.57321 22.3405C9.09446 21.2462 8.71362 19.9615 8.45248 18.55H4.92449C6.00915 20.7092 7.84172 22.428 10.0822 23.3663ZM8.16283 16.45C8.08865 15.6567 8.05 14.837 8.05 14C8.05 13.163 8.08865 12.3433 8.16283 11.55H4.14767C3.95319 12.3346 3.85 13.1553 3.85 14C3.85 14.8447 3.95319 15.6654 4.14767 16.45H8.16283ZM8.45248 9.45C8.71362 8.03851 9.09446 6.75383 9.57321 5.65954C9.73013 5.30088 9.89979 4.95757 10.0822 4.63372C7.84172 5.572 6.00914 7.29075 4.92449 9.45L8.45248 9.45Z" fill="#8D9299"/>
</svg>
