<svg width="20" height="20" viewBox="0 0 20 20" fill="none" xmlns="http://www.w3.org/2000/svg">
<path fill-rule="evenodd" clip-rule="evenodd" d="M13.789 4.75C12.8793 4.75 11.4998 5.15363 10.6603 6.71244C10.5295 6.95534 10.2759 7.10681 10 7.10681C9.72411 7.10681 9.47049 6.95534 9.33967 6.71244C8.50023 5.15375 7.12074 4.75038 6.21089 4.75038C5.27652 4.75038 4.39018 5.09664 3.74455 5.69808C3.1458 6.25585 2.75 7.26561 2.75 8.3873C2.75 10.3158 4.04086 13.6808 10 16.1884C15.9593 13.6807 17.25 10.3157 17.25 8.38705C17.25 7.26532 16.8542 6.25552 16.2554 5.69773C15.6098 5.09627 14.7234 4.75 13.789 4.75ZM9.99998 5.02573C11.1549 3.65946 12.692 3.25 13.789 3.25C15.0883 3.25 16.3441 3.7303 17.2778 4.60017C18.2585 5.51369 18.75 6.96796 18.75 8.38705C18.75 11.1182 16.882 15.0138 10.2823 17.6949C10.1013 17.7684 9.89873 17.7684 9.71772 17.6949C3.11823 15.0139 1.25 11.1184 1.25 8.3873C1.25 6.96825 1.74149 5.51402 2.72213 4.60052C3.65589 3.73067 4.91166 3.25038 6.21089 3.25038C7.30775 3.25038 8.845 3.6595 9.99998 5.02573Z" fill="#2E6FF2"/>
</svg>
