<svg width="20" height="20" viewBox="0 0 20 20" fill="none" xmlns="http://www.w3.org/2000/svg">
<path fill-rule="evenodd" clip-rule="evenodd" d="M10 3.25C10.4142 3.25 10.75 3.58579 10.75 4L10.75 11.1492L13.4616 8.35289C13.7499 8.05553 14.2247 8.04822 14.5221 8.33657C14.8195 8.62493 14.8268 9.09974 14.5384 9.39711L10.5384 13.5221C10.3972 13.6678 10.2029 13.75 10 13.75C9.79709 13.75 9.60283 13.6678 9.46158 13.5221L5.46158 9.39711C5.17322 9.09975 5.18053 8.62493 5.47789 8.33658C5.77526 8.04822 6.25007 8.05553 6.53843 8.35289L9.25 11.1492L9.25 4C9.25 3.58579 9.58579 3.25 10 3.25Z" fill="#8D9299"/>
<path fill-rule="evenodd" clip-rule="evenodd" d="M3.46967 17.0303C3.32902 16.8897 3.25 16.6989 3.25 16.5L3.25 14.5C3.25 14.0858 3.58579 13.75 4 13.75C4.41421 13.75 4.75 14.0858 4.75 14.5L4.75 15.75L15.25 15.75L15.25 14.5C15.25 14.0858 15.5858 13.75 16 13.75C16.4142 13.75 16.75 14.0858 16.75 14.5L16.75 16.5C16.75 16.9142 16.4142 17.25 16 17.25L4 17.25C3.80109 17.25 3.61032 17.171 3.46967 17.0303Z" fill="#8D9299"/>
</svg>
