<svg width="24" height="24" viewBox="0 0 24 24" fill="none" xmlns="http://www.w3.org/2000/svg">
<path d="M12 3.90002C12.2646 3.90003 12.5026 4.01427 12.6673 4.19613L18.6659 10.7946C19.0003 11.1624 18.9732 11.7316 18.6054 12.066C18.2376 12.4003 17.6684 12.3732 17.334 12.0054L12.9 7.12796V19.2C12.9 19.6971 12.497 20.1 12 20.1C11.5029 20.1 11.1 19.6971 11.1 19.2V7.12798L6.66593 12.0054C6.33157 12.3732 5.76237 12.4003 5.39458 12.066C5.02678 11.7316 4.99968 11.1624 5.33404 10.7946L11.3308 4.19813C11.4956 4.0151 11.7343 3.90002 12 3.90002C12 3.90002 12 3.90002 12 3.90002Z" fill="#8D9299"/>
</svg>
