<svg width="20" height="20" viewBox="0 0 20 20" fill="none" xmlns="http://www.w3.org/2000/svg">
<path fill-rule="evenodd" clip-rule="evenodd" d="M3.5 3.75C3.08579 3.75 2.75 4.08579 2.75 4.5V15.5C2.75 16.1904 3.30964 16.75 4 16.75H16C16.6904 16.75 17.25 16.1904 17.25 15.5V6.5C17.25 6.08579 16.9142 5.75 16.5 5.75H11.25C10.5418 5.75 9.87492 5.41656 9.45 4.85L8.85 4.05C8.70836 3.86115 8.48607 3.75 8.25 3.75H3.5ZM1.25 4.5C1.25 3.25736 2.25736 2.25 3.5 2.25H8.25C8.9582 2.25 9.62508 2.58344 10.05 3.15L10.65 3.95C10.7916 4.13885 11.0139 4.25 11.25 4.25H16.5C17.7426 4.25 18.75 5.25736 18.75 6.5V15.5C18.75 17.0188 17.5188 18.25 16 18.25H4C2.48122 18.25 1.25 17.0188 1.25 15.5V4.5Z" fill="#8D9299"/>
<path fill-rule="evenodd" clip-rule="evenodd" d="M10 7.75C10.4142 7.75 10.75 8.08579 10.75 8.5V11.7951L11.9932 10.6555C12.2986 10.3756 12.773 10.3962 13.0529 10.7015C13.3328 11.0069 13.3121 11.4813 13.0068 11.7612L10.5068 14.0529C10.2201 14.3157 9.77995 14.3157 9.49321 14.0529L6.99321 11.7612C6.68787 11.4813 6.66724 11.0069 6.94714 10.7015C7.22703 10.3962 7.70146 10.3756 8.0068 10.6555L9.25 11.7951L9.25 8.5C9.25 8.08579 9.58579 7.75 10 7.75Z" fill="#8D9299"/>
</svg>
