<svg width="40" height="40" viewBox="0 0 40 40" fill="none" xmlns="http://www.w3.org/2000/svg">
<path d="M12.5 10C12.5 9.17157 13.1716 8.5 14 8.5H35C35.8284 8.5 36.5 9.17157 36.5 10C36.5 10.8284 35.8284 11.5 35 11.5L14 11.5C13.1716 11.5 12.5 10.8284 12.5 10Z" fill="white"/>
<path d="M12.5 20C12.5 19.1716 13.1716 18.5 14 18.5L35 18.5C35.8284 18.5 36.5 19.1716 36.5 20C36.5 20.8284 35.8284 21.5 35 21.5L14 21.5C13.1716 21.5 12.5 20.8284 12.5 20Z" fill="white"/>
<path d="M14 28.5C13.1716 28.5 12.5 29.1716 12.5 30C12.5 30.8284 13.1716 31.5 14 31.5L35 31.5C35.8284 31.5 36.5 30.8284 36.5 30C36.5 29.1716 35.8284 28.5 35 28.5L14 28.5Z" fill="white"/>
<path d="M7 8C5.89543 8 5 8.89543 5 10C5 11.1046 5.89543 12 7 12C8.10457 12 9 11.1046 9 10C9 8.89543 8.10457 8 7 8Z" fill="white"/>
<path d="M5 20C5 18.8954 5.89543 18 7 18C8.10457 18 9 18.8954 9 20C9 21.1046 8.10457 22 7 22C5.89543 22 5 21.1046 5 20Z" fill="white"/>
<path d="M5 30C5 28.8954 5.89543 28 7 28C8.10457 28 9 28.8954 9 30C9 31.1046 8.10457 32 7 32C5.89543 32 5 31.1046 5 30Z" fill="white"/>
</svg>
