<svg width="177" height="34" viewBox="0 0 177 34" fill="none" xmlns="http://www.w3.org/2000/svg">
<path d="M91.9051 26.9292C90.9151 26.9292 90.1134 26.136 90.1134 25.1563C90.1134 20.8138 86.5414 17.2793 82.1525 17.2793C77.7639 17.2793 74.1917 20.8138 74.1917 25.1563C74.1917 26.136 73.3902 26.9292 72.4001 26.9292C71.4099 26.9292 70.6084 26.136 70.6084 25.1563C70.6084 18.8581 75.7872 13.7336 82.1525 13.7336C88.5178 13.7336 93.6969 18.8581 93.6969 25.1563C93.6969 26.136 92.8952 26.9292 91.9051 26.9292Z" fill="#2E6FF2"/>
<path d="M119.46 26.9292C118.996 26.9292 118.532 26.7557 118.177 26.4105L108.306 16.7609C107.598 16.0685 107.598 14.9451 108.306 14.2528C109.014 13.5605 110.162 13.5605 110.872 14.2528L119.46 22.6484L128.048 14.2528C128.756 13.5605 129.904 13.5605 130.614 14.2528C131.322 14.9451 131.322 16.0685 130.614 16.7609L120.743 26.4105C120.388 26.7557 119.924 26.9292 119.46 26.9292Z" fill="#2E6FF2"/>
<path d="M100.877 26.9292C99.8653 26.9292 99.0466 26.1362 99.0466 25.1567V15.2253C99.0466 14.2458 99.8653 13.4528 100.877 13.4528C101.888 13.4528 102.707 14.2458 102.707 15.2253V25.1567C102.707 26.1362 101.888 26.9292 100.877 26.9292Z" fill="#2E6FF2"/>
<path d="M101.019 10.8239C102.351 10.8239 103.431 9.74406 103.431 8.41196C103.431 7.07987 102.351 6 101.019 6C99.687 6 98.6071 7.07987 98.6071 8.41196C98.6071 9.74406 99.687 10.8239 101.019 10.8239Z" fill="#2E6FF2"/>
<path d="M59.2981 27.4917C58.3377 27.4917 57.3771 27.305 56.4601 26.9317C54.592 26.1718 53.1304 24.726 52.3443 22.8612C51.5585 20.9964 51.5433 18.9392 52.3027 17.063C53.0583 15.1887 54.499 13.722 56.3558 12.9334C58.2123 12.1448 60.2645 12.1296 62.1344 12.8915C64.0024 13.6515 65.464 15.0973 66.2501 16.9621C66.6183 17.8344 66.2101 18.8402 65.3425 19.2078L56.4943 22.9621C56.8549 23.2954 57.2764 23.5641 57.7434 23.7546C58.7666 24.1717 59.8906 24.1621 60.9061 23.7316C61.8459 23.3335 62.6032 22.604 63.036 21.6783C63.4366 20.8212 64.4542 20.4535 65.3085 20.8554C66.1628 21.2574 66.5292 22.2783 66.1286 23.1355C65.337 24.8269 63.953 26.1603 62.2368 26.8899C61.2916 27.2917 60.2948 27.4917 59.2981 27.4917ZM57.6865 16.0916C56.6709 16.5239 55.8812 17.3259 55.4654 18.3526C55.2754 18.8211 55.1748 19.3126 55.1615 19.804L62.0983 16.8611C61.7377 16.5278 61.3143 16.2668 60.8491 16.0687C60.2834 15.8287 59.0627 15.5049 57.6865 16.0916Z" fill="#2E6FF2"/>
<path d="M46.2675 13.7081C45.266 13.7081 44.4554 14.5012 44.4554 15.4809C44.4554 19.8235 40.8425 23.3579 36.4038 23.3579C31.9648 23.3579 28.3519 19.8235 28.3519 15.4809C28.3519 14.5012 27.5413 13.7081 26.5397 13.7081C25.5384 13.7081 24.7276 14.5012 24.7276 15.4809C24.7276 19.8235 21.1148 23.3579 16.676 23.3579C12.2372 23.3579 8.62431 19.8235 8.62431 15.4809C8.62431 14.5012 7.81361 13.7081 6.81214 13.7081C5.8107 13.7081 5 14.5012 5 15.4809C5 21.7792 10.2381 26.9037 16.676 26.9037C20.823 26.9037 24.4682 24.7763 26.5397 21.5814C28.6115 24.7763 32.2586 26.9037 36.4038 26.9037C42.8416 26.9037 48.0797 21.7792 48.0797 15.4809C48.0797 14.5012 47.2689 13.7081 46.2675 13.7081Z" fill="#2E6FF2"/>
<path d="M137.531 6.22369H135.722V26.5626H137.531V6.22369Z" fill="#47494D"/>
<path d="M148.171 11.9844C144.139 11.9844 141.098 15.1905 141.098 19.4415C141.098 23.6924 144.139 26.8985 148.171 26.8985C152.203 26.8985 155.244 23.6924 155.244 19.4415C155.244 15.1905 152.203 11.9844 148.171 11.9844ZM148.171 25.1612C145.121 25.1612 142.907 22.7559 142.907 19.4415C142.907 16.126 145.121 13.7208 148.171 13.7208C151.221 13.7208 153.435 16.126 153.435 19.4415C153.435 22.7559 151.221 25.1612 148.171 25.1612Z" fill="#47494D"/>
<path d="M170.403 12.3204V14.4473C169.318 13.1036 167.383 11.9844 165.019 11.9844C161.069 11.9844 158.09 15.1905 158.09 19.4415C158.09 23.6924 161.069 26.8985 165.019 26.8985C167.383 26.8985 169.318 25.7794 170.403 24.4346V25.8018C170.403 28.9893 168.551 30.9698 165.571 30.9698C161.876 30.9698 161.041 28.5811 160.852 27.5538L160.792 27.2256H158.917L159.01 27.7032C159.625 30.836 162.078 32.7071 165.571 32.7071C169.543 32.7071 172.212 29.9317 172.212 25.8018V12.3204H170.403ZM165.091 25.1612C162.034 25.1612 159.899 22.8096 159.899 19.4415C159.899 16.0733 162.034 13.7208 165.091 13.7208C168.183 13.7208 170.427 16.126 170.427 19.4415C170.427 22.7559 168.183 25.1612 165.091 25.1612Z" fill="#47494D"/>
</svg>
