<svg width="177" height="34" viewBox="0 0 177 34" fill="none" xmlns="http://www.w3.org/2000/svg">
<path d="M91.9051 26.929C90.9151 26.929 90.1134 26.1358 90.1134 25.1561C90.1134 20.8136 86.5414 17.2791 82.1525 17.2791C77.7639 17.2791 74.1917 20.8136 74.1917 25.1561C74.1917 26.1358 73.3902 26.929 72.4001 26.929C71.4099 26.929 70.6084 26.1358 70.6084 25.1561C70.6084 18.8579 75.7872 13.7334 82.1525 13.7334C88.5178 13.7334 93.6969 18.8579 93.6969 25.1561C93.6969 26.1358 92.8952 26.929 91.9051 26.929Z" fill="#8D9299"/>
<path d="M119.46 26.929C118.996 26.929 118.532 26.7555 118.177 26.4103L108.306 16.7607C107.598 16.0683 107.598 14.9449 108.306 14.2526C109.014 13.5603 110.162 13.5603 110.872 14.2526L119.46 22.6482L128.048 14.2526C128.756 13.5603 129.904 13.5603 130.614 14.2526C131.322 14.9449 131.322 16.0683 130.614 16.7607L120.743 26.4103C120.388 26.7555 119.924 26.929 119.46 26.929Z" fill="#8D9299"/>
<path d="M100.877 26.929C99.8653 26.929 99.0466 26.136 99.0466 25.1565V15.2251C99.0466 14.2456 99.8653 13.4526 100.877 13.4526C101.888 13.4526 102.707 14.2456 102.707 15.2251V25.1565C102.707 26.136 101.888 26.929 100.877 26.929Z" fill="#8D9299"/>
<path d="M101.019 10.8239C102.351 10.8239 103.431 9.74406 103.431 8.41196C103.431 7.07987 102.351 6 101.019 6C99.687 6 98.6071 7.07987 98.6071 8.41196C98.6071 9.74406 99.687 10.8239 101.019 10.8239Z" fill="#8D9299"/>
<path d="M59.2981 27.492C58.3377 27.492 57.3771 27.3052 56.4601 26.9319C54.592 26.172 53.1304 24.7262 52.3443 22.8614C51.5585 20.9966 51.5433 18.9394 52.3027 17.0632C53.0583 15.1889 54.499 13.7222 56.3558 12.9336C58.2123 12.1451 60.2645 12.1298 62.1344 12.8917C64.0024 13.6518 65.464 15.0975 66.2501 16.9623C66.6183 17.8347 66.2101 18.8404 65.3425 19.208L56.4943 22.9624C56.8549 23.2956 57.2764 23.5644 57.7434 23.7548C58.7666 24.172 59.8906 24.1623 60.9061 23.7318C61.8459 23.3337 62.6032 22.6043 63.036 21.6785C63.4366 20.8214 64.4542 20.4538 65.3085 20.8557C66.1628 21.2576 66.5292 22.2785 66.1286 23.1357C65.337 24.8271 63.953 26.1606 62.2368 26.8901C61.2916 27.2919 60.2948 27.492 59.2981 27.492ZM57.6865 16.0918C56.6709 16.5242 55.8812 17.3261 55.4654 18.3528C55.2754 18.8213 55.1748 19.3128 55.1615 19.8042L62.0983 16.8613C61.7377 16.528 61.3143 16.267 60.8491 16.0689C60.2834 15.8289 59.0627 15.5051 57.6865 16.0918Z" fill="#8D9299"/>
<path d="M46.2675 13.708C45.266 13.708 44.4554 14.5011 44.4554 15.4808C44.4554 19.8234 40.8425 23.3578 36.4038 23.3578C31.9648 23.3578 28.3519 19.8234 28.3519 15.4808C28.3519 14.5011 27.5413 13.708 26.5397 13.708C25.5384 13.708 24.7276 14.5011 24.7276 15.4808C24.7276 19.8234 21.1148 23.3578 16.676 23.3578C12.2372 23.3578 8.62431 19.8234 8.62431 15.4808C8.62431 14.5011 7.81361 13.708 6.81214 13.708C5.8107 13.708 5 14.5011 5 15.4808C5 21.7791 10.2381 26.9036 16.676 26.9036C20.823 26.9036 24.4682 24.7763 26.5397 21.5813C28.6115 24.7763 32.2586 26.9036 36.4038 26.9036C42.8416 26.9036 48.0797 21.7791 48.0797 15.4808C48.0797 14.5011 47.2689 13.708 46.2675 13.708Z" fill="#8D9299"/>
<path d="M137.531 6.22363H135.722V26.5625H137.531V6.22363Z" fill="#8D9299"/>
<path d="M148.171 11.9844C144.139 11.9844 141.098 15.1904 141.098 19.4414C141.098 23.6924 144.139 26.8984 148.171 26.8984C152.203 26.8984 155.244 23.6924 155.244 19.4414C155.244 15.1904 152.203 11.9844 148.171 11.9844ZM148.171 25.1611C145.121 25.1611 142.907 22.7559 142.907 19.4414C142.907 16.126 145.121 13.7207 148.171 13.7207C151.221 13.7207 153.435 16.126 153.435 19.4414C153.435 22.7559 151.221 25.1611 148.171 25.1611Z" fill="#8D9299"/>
<path d="M170.403 12.3203V14.4473C169.318 13.1035 167.383 11.9844 165.019 11.9844C161.069 11.9844 158.09 15.1904 158.09 19.4414C158.09 23.6924 161.069 26.8984 165.019 26.8984C167.383 26.8984 169.318 25.7793 170.403 24.4346V25.8018C170.403 28.9893 168.551 30.9697 165.571 30.9697C161.876 30.9697 161.041 28.5811 160.852 27.5537L160.792 27.2256H158.917L159.01 27.7031C159.625 30.8359 162.078 32.707 165.571 32.707C169.543 32.707 172.212 29.9316 172.212 25.8018V12.3203H170.403ZM165.091 25.1611C162.034 25.1611 159.899 22.8096 159.899 19.4414C159.899 16.0732 162.034 13.7207 165.091 13.7207C168.183 13.7207 170.427 16.126 170.427 19.4414C170.427 22.7559 168.183 25.1611 165.091 25.1611Z" fill="#8D9299"/>
</svg>
